<svg width="32" height="32" viewBox="0 0 32 32" fill="none" xmlns="http://www.w3.org/2000/svg">
  <rect width="32" height="32" rx="6" fill="#0B0B1A"/>
  
  <!-- Tanzanite gem with enhanced details -->
  <g transform="translate(6, 6)">
    <!-- Main triangular gem structure -->
    <path d="M10 2 L16 6 L13 12 L7 12 Z" fill="#6E3CE6"/>
    <path d="M10 2 L13 12 L10 18 L4 12 Z" fill="#2C3CFF"/>
    <path d="M16 6 L18 8 L13 12 L10 2 Z" fill="#6BB6FF"/>
    <path d="M4 6 L10 2 L4 12 L2 8 Z" fill="#5A2FD8"/>
    <path d="M4 12 L10 18 L8 16 L2 14 Z" fill="#4726C5"/>
    <path d="M13 12 L18 14 L16 16 L10 18 Z" fill="#6E3CE6"/>
    
    <!-- Inner light reflections -->
    <path d="M10 6 L13 9 L10 13 L7 9 Z" fill="#B8C2FF" opacity="0.7"/>
    <path d="M9 4 L12 3 L12 9 L9 9 Z" fill="#E6E9FF" opacity="0.6"/>
    
    <!-- Bright highlight -->
    <path d="M10 3 L11 5 L10 7 L9 5 Z" fill="#FFFFFF" opacity="0.8"/>
    
    <!-- Subtle sparkle points -->
    <circle cx="12" cy="5" r="0.5" fill="#FFFFFF" opacity="0.9"/>
    <circle cx="8" cy="8" r="0.3" fill="#6BB6FF" opacity="0.8"/>
    <circle cx="14" cy="10" r="0.4" fill="#B8C2FF" opacity="0.7"/>
  </g>
</svg>
