<svg width="32" height="32" viewBox="0 0 32 32" fill="none" xmlns="http://www.w3.org/2000/svg">
  <rect width="32" height="32" rx="6" fill="#0B0B1A"/>
  <g transform="translate(4, 4)">
    <!-- Main facets -->
    <path d="M12 2 L18 5 L15 12 L9 12 Z" fill="#6E3CE6"/>
    <path d="M12 2 L15 12 L12 22 L6 12 Z" fill="#2C3CFF"/>
    <path d="M18 5 L22 8 L15 12 L12 2 Z" fill="#6BB6FF"/>
    <path d="M6 5 L12 2 L6 12 L2 8 Z" fill="#5A2FD8"/>
    <path d="M6 12 L12 22 L9 19 L2 16 Z" fill="#4726C5"/>
    <path d="M15 12 L22 16 L19 19 L12 22 Z" fill="#6E3CE6"/>
    <path d="M2 8 L6 5 L6 12 L2 16 Z" fill="#4726C5"/>
    <path d="M22 8 L22 16 L19 19 L18 5 Z" fill="#6BB6FF"/>
    <!-- Inner reflections -->
    <path d="M12 7 L15 10 L12 15 L9 10 Z" fill="#B8C2FF" opacity="0.7"/>
    <path d="M11 5 L14 4 L14 10 L11 10 Z" fill="#E6E9FF" opacity="0.5"/>
    <!-- Highlight -->
    <path d="M12 3 L14 5 L12 8 L10 5 Z" fill="#FFFFFF" opacity="0.6"/>
  </g>
</svg>
